<svg xmlns="http://www.w3.org/2000/svg" viewBox="0 0 1499.09 481.68"><defs><style>.cls-1{fill:#58585a;}.cls-2{fill:#1b77ae;}</style></defs><title>ajax-jets-logo</title><g id="Layer_2" data-name="Layer 2"><g id="Layer_1-2" data-name="Layer 1"><g id="_Group_" data-name="&lt;Group&gt;"><g id="_Group_2" data-name="&lt;Group&gt;"><g id="_Group_3" data-name="&lt;Group&gt;"><path id="_Compound_Path_" data-name="&lt;Compound Path&gt;" class="cls-1" d="M572,447.31q0,18.47-11,27-9.74,7.39-29,7.39H504.12V468.35H532q13,0,19.15-3.92,7.5-4.92,7.5-17.13v-42.1H572Z"/><path id="_Compound_Path_2" data-name="&lt;Compound Path&gt;" class="cls-1" d="M708.34,481.68H642.28V405.21h66.06v13.32H655.61v49.82h52.73Zm-3.47-32.13H661.21V436.22h43.67Z"/><path id="_Compound_Path_3" data-name="&lt;Compound Path&gt;" class="cls-1" d="M848.07,418.53H818v63.15H804.74V418.53H774.51V405.21h73.56Z"/><path id="_Compound_Path_4" data-name="&lt;Compound Path&gt;" class="cls-1" d="M995,458.05q0,10.86-7.73,17.46-7.39,6.16-18.47,6.16H910.43V468.35h58.33a17.9,17.9,0,0,0,9.52-2.46,9.35,9.35,0,0,0,4.59-8.18,8.79,8.79,0,0,0-4.7-8,18,18,0,0,0-9.41-2.35H932.72q-10,0-16.68-5.49a20.61,20.61,0,0,1,0-31.24q6.72-5.49,16.68-5.49h57.66v13.32H932.72a10.14,10.14,0,0,0-6.49,2.13,6.92,6.92,0,0,0-2.69,5.71,6.71,6.71,0,0,0,2.69,5.71,10.52,10.52,0,0,0,6.49,2h36.05q11.08,0,18.47,6.38Q995,447.19,995,458.05Z"/></g><g id="_Group_4" data-name="&lt;Group&gt;"><rect id="_Path_" data-name="&lt;Path&gt;" class="cls-1" y="438.65" width="471.1" height="9.58"/></g><g id="_Group_5" data-name="&lt;Group&gt;"><rect id="_Path_2" data-name="&lt;Path&gt;" class="cls-1" x="1027.99" y="438.65" width="471.1" height="9.58"/></g></g><path id="_Compound_Path_5" data-name="&lt;Compound Path&gt;" class="cls-2" d="M637.39,189.36q0,82.41-48.95,120.37-43.45,33-129.35,33h-72V283.25h72q57.93,0,85.4-17.48Q578,243.8,578,189.36V1.57h59.43Z"/><path id="_Compound_Path_6" data-name="&lt;Compound Path&gt;" class="cls-2" d="M1499.09,343.18h-85.4L1293.32,218.82,1173.46,343.18h-85.4l165.81-170.31L1088.06,1.57h82.41l122.86,125.86L1416.18,1.57h82.91l-166.31,171.3Z"/><path id="_Path_3" data-name="&lt;Path&gt;" class="cls-2" d="M0,343.18,185.75,0,371.27,343.18S318.91,279.84,219,269.59L184.81,148.08l-34.6,122.06S70.85,276.18,0,343.18Z"/><g id="_Group_6" data-name="&lt;Group&gt;"><path id="_Compound_Path_7" data-name="&lt;Compound Path&gt;" class="cls-2" d="M1078.72,343.18l-76.25-.5-57.32-95.19H783.67l35.88-58.81h90.21L850.45,90.5,697,342.68H620.7L805.6,35.18A79.82,79.82,0,0,1,825,13.25Q840,1.8,852,1.79q13,0,26.91,11A78.42,78.42,0,0,1,898.3,35.18Z"/></g></g></g></g></svg>